<svg width="132" height="22" viewBox="0 0 132 22" fill="none" xmlns="http://www.w3.org/2000/svg">
<path d="M38.7769 10.44C39.6469 11.3725 40.0834 12.5279 40.0834 13.9045C40.0834 15.2903 39.6484 16.4457 38.7769 17.3782C37.8978 18.3107 36.8142 18.7732 35.5169 18.7732C34.1494 18.7732 33.0566 18.2222 32.2477 17.1111V18.5504H30.2041V5.4462H32.2477V10.7056C33.0566 9.60363 34.1494 9.05267 35.5169 9.05267C36.8127 9.05267 37.8963 9.51511 38.7769 10.44ZM35.1155 16.8013C35.9244 16.8013 36.6081 16.5251 37.1591 15.9756C37.7009 15.4247 37.9772 14.7318 37.9772 13.9061C37.9772 13.0804 37.7009 12.3966 37.1591 11.8457C36.6081 11.2947 35.9244 11.02 35.1155 11.02C34.3066 11.02 33.6228 11.2947 33.0719 11.8457C32.5209 12.3966 32.2462 13.0804 32.2462 13.9061C32.2462 14.7333 32.5209 15.4262 33.0719 15.9756C33.6228 16.5251 34.3081 16.8013 35.1155 16.8013Z" fill="white"/>
<path d="M51.2597 14.6952H43.5736C43.7247 15.3789 44.0452 15.9207 44.5504 16.3206C45.0571 16.7296 45.6615 16.9341 46.3636 16.9341C47.5281 16.9341 48.4957 16.4091 48.9139 15.6017H51.1254C50.7881 16.5526 50.1929 17.3157 49.3305 17.8941C48.4682 18.4802 47.4731 18.7732 46.3452 18.7732C44.932 18.7732 43.7598 18.3108 42.8181 17.3783C41.8673 16.4457 41.3972 15.2904 41.3972 13.9046C41.3972 12.5279 41.8673 11.3726 42.8181 10.44C43.7598 9.51668 44.932 9.05423 46.3452 9.05423C47.7662 9.05423 48.949 9.51668 49.8983 10.44C50.84 11.3726 51.3116 12.5371 51.3116 13.932C51.3131 14.2236 51.2948 14.4723 51.2597 14.6952ZM46.3468 10.8918C45.6798 10.8918 45.0937 11.0872 44.5962 11.4687C44.0986 11.8594 43.7613 12.3753 43.5919 13.0148H49.1092C48.9398 12.3661 48.6025 11.8518 48.0958 11.4687C47.5906 11.0872 47.0122 10.8918 46.3468 10.8918Z" fill="white"/>
<path d="M53.4452 17.9109C52.8225 17.3416 52.5127 16.6487 52.5127 15.823H54.5823C54.5823 16.1511 54.7074 16.4274 54.947 16.6579C55.1866 16.8883 55.4888 17.0043 55.8353 17.0043C56.1634 17.0043 56.4397 16.9066 56.6793 16.7204C56.9097 16.5342 57.0257 16.2946 57.0257 16.0184C57.0257 15.4415 56.4748 15.005 55.382 14.7119C53.5521 14.2495 52.6363 13.2986 52.6363 11.8518C52.6363 10.9895 52.9385 10.3149 53.5521 9.80815C54.1564 9.30145 54.9028 9.05267 55.7819 9.05267C56.6976 9.05267 57.4516 9.32739 58.0651 9.87073C58.6695 10.4125 58.9717 11.0795 58.9717 11.8701H56.893C56.893 11.2932 56.4305 10.8216 55.7651 10.8216C55.1882 10.8216 54.7074 11.2214 54.7074 11.7281C54.7074 12.3051 55.2675 12.7416 56.3863 13.0163C58.1903 13.4787 59.0953 14.4204 59.0953 15.8413C59.0953 16.7387 58.784 17.4576 58.1628 17.9826C57.5324 18.5061 56.7495 18.7732 55.817 18.7732C54.8585 18.7732 54.0679 18.4893 53.4452 17.9109Z" fill="white"/>
<path d="M66.2488 11.1238H63.8237V16.6762H66.2488V18.5504H61.7877V11.1238H60.0554V9.27552H61.7877V6.539H63.8237V9.27552H66.2488V11.1238Z" fill="white"/>
<path d="M76.9278 14.6952H69.2433C69.3944 15.3789 69.7149 15.9207 70.2201 16.3206C70.7268 16.7296 71.3312 16.9341 72.0332 16.9341C73.1977 16.9341 74.1654 16.4091 74.5836 15.6017H76.7951C76.4578 16.5526 75.8625 17.3157 75.0002 17.8941C74.1379 18.4802 73.1428 18.7732 72.0149 18.7732C70.6016 18.7732 69.4295 18.3108 68.4878 17.3783C67.537 16.4457 67.0669 15.2904 67.0669 13.9046C67.0669 12.5279 67.5385 11.3726 68.4878 10.44C69.4295 9.51668 70.6016 9.05423 72.0149 9.05423C73.4358 9.05423 74.6187 9.51668 75.568 10.44C76.5097 11.3726 76.9812 12.5371 76.9812 13.932C76.9812 14.2236 76.9629 14.4723 76.9278 14.6952ZM72.0149 10.8918C71.348 10.8918 70.7619 11.0872 70.2643 11.4687C69.7668 11.8594 69.4295 12.3753 69.2601 13.0148H74.7774C74.608 12.3661 74.2707 11.8518 73.764 11.4687C73.2588 11.0872 72.6803 10.8918 72.0149 10.8918Z" fill="white"/>
<path d="M93.3912 9.27554V18.5504H91.3476V11.2383H87.0925V18.5504H85.058V11.2383H80.8014V18.5504H78.7593V9.27554H93.3912Z" fill="white"/>
<path d="M96.8389 18.6923C96.4207 18.6923 96.0743 18.5595 95.7995 18.2833C95.5248 18.0086 95.3813 17.6697 95.3813 17.2531C95.3813 16.844 95.5233 16.4976 95.7995 16.2229C96.0743 15.9482 96.4222 15.8047 96.8389 15.8047C97.2556 15.8047 97.6035 15.9466 97.8783 16.2229C98.153 16.4976 98.2964 16.8456 98.2964 17.2531C98.2964 17.6713 98.1545 18.0086 97.8783 18.2833C97.6035 18.5595 97.2571 18.6923 96.8389 18.6923Z" fill="white"/>
<path d="M107.252 5.4462H109.296V18.5504H107.252V17.1111C106.443 18.2131 105.36 18.764 104.002 18.7732C102.695 18.7732 101.602 18.3107 100.742 17.3782C99.87 16.4457 99.4351 15.2903 99.4351 13.9045C99.4351 12.5279 99.87 11.3725 100.742 10.44C101.604 9.51664 102.697 9.05419 104.002 9.05419C105.361 9.05419 106.445 9.60516 107.252 10.7071V5.4462ZM106.434 15.9741C106.976 15.4231 107.251 14.7302 107.251 13.9045C107.251 13.0788 106.976 12.3936 106.434 11.8426C105.893 11.2916 105.209 11.0169 104.4 11.0169C103.574 11.0169 102.889 11.2916 102.347 11.8426C101.796 12.3936 101.521 13.0773 101.521 13.9045C101.521 14.7318 101.796 15.4247 102.347 15.9741C102.889 16.5251 103.573 16.7998 104.4 16.7998C105.209 16.8013 105.893 16.5251 106.434 15.9741Z" fill="white"/>
<path d="M121.014 14.6952H113.33C113.481 15.3789 113.801 15.9207 114.307 16.3206C114.813 16.7296 115.418 16.9341 116.12 16.9341C117.284 16.9341 118.252 16.4091 118.67 15.6017H120.882C120.544 16.5526 119.949 17.3157 119.087 17.8941C118.224 18.4802 117.229 18.7732 116.101 18.7732C114.688 18.7732 113.516 18.3108 112.574 17.3783C111.623 16.4457 111.152 15.2904 111.152 13.9046C111.152 12.5279 111.623 11.3726 112.574 10.44C113.516 9.51668 114.688 9.05423 116.101 9.05423C117.522 9.05423 118.705 9.51668 119.654 10.44C120.596 11.3726 121.068 12.5371 121.068 13.932C121.068 14.2236 121.049 14.4723 121.014 14.6952ZM116.101 10.8918C115.434 10.8918 114.848 11.0872 114.351 11.4687C113.853 11.8594 113.516 12.3753 113.347 13.0148H118.864C118.694 12.3661 118.357 11.8518 117.85 11.4687C117.345 11.0872 116.768 10.8918 116.101 10.8918Z" fill="white"/>
<path d="M129.019 9.27554H131.295L127.359 18.5504H125.234L121.281 9.27554H123.618L126.327 16.0367L129.019 9.27554Z" fill="white"/>
<path d="M20.137 15.7696C23.0186 10.3179 19.6425 3.26372 13.6216 1.9588C7.86162 0.708817 2.44505 4.5137 1.79182 10.3866C1.65446 11.6274 0.931032 12.2196 0.0916085 13.0117C-0.265528 9.87227 0.416695 7.11744 2.22375 4.6709C5.23193 0.597403 10.5371 -1.0265 15.2226 0.658452C20.0882 2.40751 23.1513 6.99381 22.8644 12.1326C22.7652 13.9259 22.2661 15.6109 21.3565 17.1646C20.7124 18.2635 20.0821 18.3443 19.1786 17.4454C16.848 15.1255 14.5205 12.8011 12.1915 10.4782C11.4376 9.72575 11.4376 9.72423 10.7111 10.4522C8.15923 13.0117 5.5967 15.559 3.0708 18.1429C2.63888 18.584 2.4191 18.5336 2.14286 18.0605C2.04365 17.8895 1.92003 17.7293 1.78724 17.5812C1.482 17.2424 1.51405 16.9952 1.85745 16.6563C4.88701 13.6588 7.9013 10.6461 10.8973 7.61498C11.3094 7.1968 11.5505 7.18764 11.9611 7.6043C14.519 10.1928 17.0983 12.7584 19.6731 15.3301C19.8089 15.4659 19.9539 15.5971 20.137 15.7696Z" fill="white"/>
<path d="M15.9247 21.9249C15.6118 21.9325 15.5157 21.7326 15.3798 21.5982C14.2855 20.5116 13.1714 19.4432 12.1137 18.3214C11.6329 17.8102 11.3323 17.6667 10.7813 18.2772C9.76636 19.402 8.65069 20.4368 7.57623 21.5097C7.16873 21.9157 5.77986 21.6852 5.53719 21.177C5.44409 20.9817 5.60587 20.9053 5.7005 20.8107C7.50908 18.9945 9.32223 17.1844 11.1278 15.3667C11.3613 15.1332 11.5337 15.1728 11.7505 15.3896C13.5575 17.2058 15.3722 19.0159 17.1838 20.829C17.3013 20.9465 17.4967 21.0992 17.254 21.2411C16.8038 21.5006 16.3291 21.7188 15.9247 21.9249Z" fill="white"/>
</svg>
